<svg xmlns="http://www.w3.org/2000/svg" viewBox="0 0 13.13437 4.40852" height="16.66213" width="49.6417">
  <path d="M.72668.06902L.00084 4.33951a.05911.05911 0 00.05827.06901h.99997a.0811.0811 0 00.08023-.06925l.35421-2.39984a.01891.01891 0 01.03627-.00428l.96541 2.40838a.10348.10348 0 00.09605.06498h.31527c.03866 0 .08212-.0289.09708-.06455.38081-.90774.76313-1.81485 1.14324-2.7229.01492-.03566.03598-.03453.04703.00239l.81058 2.71785a.09393.09393 0 00.09001.06709h1.02581a.0968.0968 0 00.09194-.06648l.79898-2.42193a.02256.02256 0 01.04295.00027l.76205 2.42133a.09542.09542 0 00.09102.06678h1.02943a.09585.09585 0 00.0913-.0667l1.05914-3.31602a.09585.09585 0 01.0913-.06669h.42844c.03866 0 .10136-.00015.14.00133.38575.01397.68468.14513.89694.39325.02513.02938.06288.0795.08442.1116.13097.19515.20208.41747.21318.66725.00159.03862.00159.10134 0 .13996-.01111.25013-.08229.47374-.21341.6707-.02143.03217-.05894.08247-.08396.11194-.21064.24808-.50964.37917-.89717.3931-.03864.00131-.10134.00131-.14.00131h-.51679a.09586.09586 0 00-.09132.06669l-.26383.82575a.05112.05112 0 00.0487.06668h1.10746c.03866 0 .10136.00012.14-.00106.18985-.0063.37692-.03831.5612-.09618.03688-.0116.09607-.03228.13214-.04619.38021-.14662.6977-.39003.95247-.73005.02317-.03094.0594-.08211.0809-.11425.23779-.35568.36296-.73849.37572-1.14824.00132-.03864.00132-.10135-.00006-.14-.00923-.28244-.07451-.55763-.19549-.82572-.0159-.03524-.0435-.09154-.06161-.1257-.17228-.32487-.40784-.59023-.70723-.79646-.03184-.02194-.08443-.05608-.11743-.07622C11.73521.11527 11.395.0128 11.03104.0012c-.03864-.00132-.10134-.00105-.14-.00105H9.28955a.09341.09341 0 00-.08965.06719l-.79372 2.71402a.02091.02091 0 01-.04008.00023L7.53827.0671a.09454.09454 0 00-.09043-.06696H6.6768a.0966.0966 0 00-.0918.06652l-.88968 2.71535a.02086.02086 0 01-.03996-.00105l-.729-2.7132a.0913.0913 0 00-.08817-.0676H3.77981a.10363.10363 0 00-.09614.06494l-.89392 2.2214a.0274.0274 0 01-.05103-.00053L1.894.06556a.10153.10153 0 00-.0949-.06543H.80842a.0829.0829 0 00-.08174.06901z" style="line-height:125%;-inkscape-font-specification:Aharoni;text-align:center" font-size="6.61458" font-family="Aharoni" letter-spacing="0" word-spacing="0" text-anchor="middle"/>
  <path style="isolation:auto;solid-color:#000000;solid-opacity:1" color="#000" overflow="visible" fill="none" d="M10.44288-1.00118h1.58037V6.3078h-1.58037z"/>
</svg>
